<?xml version="1.0" standalone="no"?><!DOCTYPE svg PUBLIC "-//W3C//DTD SVG 1.1//EN" "http://www.w3.org/Graphics/SVG/1.1/DTD/svg11.dtd"><svg t="1773065091737" class="icon" viewBox="0 0 1024 1024" version="1.1" xmlns="http://www.w3.org/2000/svg" p-id="3704" xmlns:xlink="http://www.w3.org/1999/xlink" width="200" height="200"><path d="M530.773333 645.12c-122.88 0-249.173333-22.186667-372.053333-64.853333-5.12-1.706667-8.533333-6.826667-8.533333-13.653334 0-211.626667 170.666667-382.293333 380.586666-382.293333s380.586667 172.373333 380.586667 382.293333c0 5.12-3.413333 10.24-8.533333 13.653334-122.88 42.666667-249.173333 64.853333-372.053334 64.853333z m-353.28-87.04c233.813333 80.213333 472.746667 80.213333 706.56 0-5.12-192.853333-162.133333-346.453333-353.28-346.453333s-348.16 153.6-353.28 346.453333z m720.213334 8.533333z" fill="#707070" p-id="3705"></path><path d="M532.48 645.12c-6.826667 0-13.653333-6.826667-13.653333-13.653333l-3.413334-433.493334c0-6.826667 6.826667-13.653333 13.653334-13.653333s13.653333 6.826667 13.653333 13.653333L546.133333 631.466667c0 8.533333-6.826667 13.653333-13.653333 13.653333z" fill="#707070" p-id="3706"></path><path d="M281.6 595.626667c-5.12 0-8.533333-5.12-8.533333-8.533334 0-5.12 3.413333-8.533333 8.533333-8.533333s8.533333 3.413333 8.533333 8.533333-3.413333 8.533333-8.533333 8.533334z m1.706667-34.133334c-5.12 0-8.533333-5.12-6.826667-8.533333 0-5.12 5.12-8.533333 10.24-6.826667 5.12 0 8.533333 5.12 6.826667 10.24 0 1.706667-5.12 5.12-10.24 5.12 1.706667 0 1.706667 0 0 0z m5.12-34.133333c-5.12-1.706667-6.826667-5.12-6.826667-10.24 1.706667-5.12 5.12-8.533333 10.24-6.826667 5.12 0 8.533333 5.12 6.826667 10.24-1.706667 3.413333-5.12 6.826667-10.24 6.826667 1.706667 0 0 0 0 0z m6.826666-34.133333c-5.12-1.706667-6.826667-5.12-6.826666-10.24 1.706667-3.413333 6.826667-6.826667 10.24-5.12 5.12 1.706667 6.826667 5.12 6.826666 10.24-1.706667 3.413333-5.12 6.826667-8.533333 6.826666l-1.706667-1.706666z m8.533334-32.426667c-5.12-1.706667-6.826667-6.826667-5.12-10.24 1.706667-5.12 6.826667-6.826667 10.24-5.12 5.12 1.706667 6.826667 6.826667 5.12 10.24 0 3.413333-3.413333 5.12-6.826667 5.12h-3.413333z m11.946666-32.426667c-3.413333-1.706667-6.826667-6.826667-5.12-10.24 1.706667-5.12 6.826667-6.826667 10.24-5.12 5.12 1.706667 6.826667 6.826667 5.12 10.24-1.706667 3.413333-5.12 5.12-8.533333 5.12h-1.706667z m13.653334-30.72c-3.413333-1.706667-6.826667-6.826667-3.413334-11.946666 1.706667-3.413333 6.826667-6.826667 11.946667-3.413334 3.413333 1.706667 6.826667 6.826667 3.413333 11.946667-1.706667 3.413333-5.12 5.12-6.826666 5.12-3.413333-1.706667-5.12-1.706667-5.12-1.706667z m15.36-30.72c-3.413333-1.706667-5.12-6.826667-3.413334-11.946666 1.706667-3.413333 6.826667-5.12 11.946667-3.413334 3.413333 1.706667 5.12 8.533333 3.413333 11.946667-1.706667 3.413333-5.12 3.413333-6.826666 3.413333-3.413333 1.706667-3.413333 0-5.12 0z m17.066666-29.013333c-3.413333-1.706667-5.12-8.533333-1.706666-11.946667 3.413333-3.413333 8.533333-5.12 11.946666-1.706666 3.413333 3.413333 5.12 8.533333 1.706667 11.946666-1.706667 1.706667-3.413333 3.413333-6.826667 3.413334-1.706667 0-3.413333 0-5.12-1.706667z m20.48-27.306667c-3.413333-3.413333-3.413333-8.533333-1.706666-11.946666 3.413333-3.413333 8.533333-3.413333 11.946666-1.706667 3.413333 3.413333 3.413333 8.533333 1.706667 11.946667-1.706667 1.706667-3.413333 3.413333-6.826667 3.413333-1.706667 0-3.413333 0-5.12-1.706667z m23.893334-25.6c-3.413333-3.413333-3.413333-8.533333 0-11.946666 3.413333-3.413333 8.533333-3.413333 11.946666 0 3.413333 3.413333 3.413333 8.533333 0 11.946666-1.706667 1.706667-3.413333 1.706667-6.826666 1.706667-1.706667 0-5.12 0-5.12-1.706667z m23.893333-23.893333c-3.413333-3.413333-3.413333-8.533333 0-11.946667 3.413333-3.413333 8.533333-1.706667 11.946667 1.706667 3.413333 3.413333 1.706667 8.533333-1.706667 11.946667-1.706667 1.706667-3.413333 1.706667-5.12 1.706666-1.706667 0-3.413333-1.706667-5.12-3.413333z m27.306667-22.186667c-3.413333-3.413333-1.706667-8.533333 1.706666-11.946666 3.413333-3.413333 8.533333-1.706667 11.946667 1.706666 3.413333 3.413333 1.706667 8.533333-1.706667 11.946667-1.706667 1.706667-3.413333 1.706667-5.12 1.706667-3.413333 1.706667-6.826667 0-6.826666-3.413334z m27.306666-18.773333c-1.706667-3.413333-1.706667-8.533333 3.413334-11.946667 3.413333-1.706667 10.24-1.706667 11.946666 3.413334 1.706667 3.413333 1.706667 8.533333-3.413333 11.946666-1.706667 1.706667-3.413333 1.706667-3.413333 1.706667-3.413333 0-6.826667-1.706667-8.533334-5.12z m29.013334-15.36c-1.706667-3.413333 0-8.533333 3.413333-11.946667 3.413333-1.706667 8.533333 0 11.946667 3.413334 1.706667 3.413333 0 8.533333-3.413334 11.946666h-3.413333c-3.413333 0-6.826667-1.706667-8.533333-3.413333zM781.653333 587.093333c0-5.12 3.413333-8.533333 8.533334-8.533333s8.533333 3.413333 8.533333 8.533333-3.413333 8.533333-8.533333 8.533334c-5.12-1.706667-8.533333-5.12-8.533334-8.533334z m-3.413333-34.133333c0-5.12 3.413333-8.533333 6.826667-10.24 5.12 0 8.533333 3.413333 10.24 6.826667 0 5.12-3.413333 8.533333-6.826667 10.24h-1.706667c-5.12 1.706667-8.533333-1.706667-8.533333-6.826667z m-5.12-32.426667c0-5.12 1.706667-8.533333 6.826667-10.24 5.12-1.706667 8.533333 1.706667 10.24 6.826667 0 5.12-1.706667 8.533333-6.826667 10.24h-1.706667c-5.12 0-8.533333-3.413333-8.533333-6.826667z m-6.826667-34.133333c-1.706667-3.413333 1.706667-8.533333 5.12-8.533333 5.12-1.706667 8.533333 1.706667 10.24 6.826666 1.706667 5.12-1.706667 8.533333-6.826666 10.24h-1.706667c-3.413333-1.706667-6.826667-3.413333-6.826667-8.533333z m-10.24-30.72c-1.706667-5.12 1.706667-8.533333 5.12-10.24 5.12-1.706667 8.533333 1.706667 10.24 5.12 1.706667 5.12-1.706667 8.533333-5.12 10.24h-3.413333c-1.706667 0-5.12-1.706667-6.826667-5.12z m-10.24-32.426667c-1.706667-5.12 0-8.533333 5.12-10.24 5.12-1.706667 10.24 0 11.946667 5.12 1.706667 5.12 0 8.533333-5.12 10.24h-3.413333c-5.12 0-8.533333-1.706667-8.533334-5.12z m-13.653333-30.72c-1.706667-3.413333 0-8.533333 3.413333-11.946666 3.413333-1.706667 8.533333 0 11.946667 3.413333 1.706667 3.413333 0 8.533333-3.413333 11.946667h-3.413334c-5.12 1.706667-6.826667 0-8.533333-3.413334z m-17.066667-29.013333c-1.706667-3.413333-1.706667-8.533333 3.413334-11.946667 3.413333-1.706667 8.533333-1.706667 11.946666 3.413334 1.706667 3.413333 1.706667 8.533333-3.413333 11.946666-1.706667 0-3.413333 1.706667-3.413333 1.706667-3.413333-1.706667-6.826667-1.706667-8.533334-5.12z m-17.066666-27.306667c-3.413333-3.413333-1.706667-8.533333 1.706666-11.946666 3.413333-3.413333 8.533333-1.706667 11.946667 1.706666 3.413333 3.413333 1.706667 8.533333-1.706667 11.946667-1.706667 1.706667-3.413333 1.706667-5.12 1.706667-3.413333 0-5.12-1.706667-6.826666-3.413334z m-20.48-27.306666c-3.413333-3.413333-3.413333-8.533333 1.706666-11.946667 3.413333-3.413333 8.533333-3.413333 11.946667 1.706667 3.413333 3.413333 1.706667 8.533333-1.706667 11.946666-1.706667 1.706667-3.413333 1.706667-5.12 1.706667-3.413333 0-5.12-1.706667-6.826666-3.413333z m-23.893334-23.893334c-3.413333-3.413333-3.413333-8.533333 0-11.946666 3.413333-3.413333 8.533333-3.413333 11.946667 0 3.413333 3.413333 3.413333 8.533333 0 11.946666-1.706667 1.706667-3.413333 1.706667-6.826667 1.706667 0 0-3.413333 0-5.12-1.706667z m-23.893333-23.893333c-3.413333-3.413333-3.413333-8.533333-1.706667-11.946667 3.413333-3.413333 8.533333-3.413333 11.946667-1.706666 3.413333 3.413333 3.413333 8.533333 1.706667 11.946666-1.706667 1.706667-3.413333 3.413333-6.826667 3.413334-1.706667 1.706667-3.413333 0-5.12-1.706667z m-27.306667-20.48c-3.413333-1.706667-5.12-8.533333-1.706666-11.946667 3.413333-3.413333 8.533333-5.12 11.946666-1.706666 3.413333 3.413333 5.12 8.533333 1.706667 11.946666-1.706667 1.706667-3.413333 3.413333-6.826667 3.413334-1.706667 0-3.413333 0-5.12-1.706667z m-27.306666-17.066667c-3.413333-1.706667-5.12-8.533333-3.413334-11.946666 1.706667-3.413333 8.533333-5.12 11.946667-3.413334 3.413333 1.706667 5.12 8.533333 3.413333 11.946667-1.706667 3.413333-5.12 3.413333-6.826666 3.413333-1.706667 1.706667-3.413333 0-5.12 0z m-29.013334-15.36c-3.413333-1.706667-5.12-6.826667-3.413333-11.946666 1.706667-3.413333 6.826667-5.12 11.946667-3.413334 3.413333 1.706667 5.12 6.826667 3.413333 11.946667-1.706667 3.413333-5.12 5.12-8.533333 5.12-1.706667-1.706667-3.413333-1.706667-3.413334-1.706667z" fill="#707070" p-id="3707"></path><path d="M264.533333 877.226667c-46.08 0-83.626667-15.36-107.52-44.373334-34.133333-40.96-22.186667-119.466667-6.826666-208.213333 3.413333-18.773333 6.826667-39.253333 8.533333-59.733333 1.706667-6.826667 8.533333-13.653333 15.36-11.946667 8.533333 1.706667 13.653333 8.533333 13.653333 15.36-3.413333 20.48-6.826667 40.96-10.24 59.733333-13.653333 80.213333-25.6 155.306667 0 187.733334 35.84 42.666667 100.693333 35.84 136.533334 27.306666 8.533333-1.706667 17.066667-3.413333 25.6-6.826666 47.786667-11.946667 114.346667-27.306667 189.44-27.306667 80.213333 0 141.653333 15.36 197.973333 27.306667l13.653333 3.413333c47.786667 10.24 110.933333 15.36 141.653334-25.6 30.72-37.546667 11.946667-128-5.12-223.573333l-5.12-23.893334c-1.706667-6.826667 3.413333-15.36 10.24-15.36 6.826667-1.706667 15.36 3.413333 15.36 10.24l5.12 23.893334c20.48 105.813333 37.546667 197.973333 0 245.76-40.96 51.2-114.346667 47.786667-170.666667 35.84l-13.653333-3.413334c-52.906667-11.946667-114.346667-25.6-191.146667-27.306666-71.68 0-134.826667 13.653333-182.613333 25.6-8.533333 1.706667-17.066667 5.12-25.6 6.826666-17.066667 6.826667-35.84 8.533333-54.613334 8.533334z" fill="#707070" p-id="3708"></path><path d="M465.92 177.493333a63.146667 59.733333 0 1 0 126.293333 0 63.146667 59.733333 0 1 0-126.293333 0Z" fill="#707070" p-id="3709"></path><path d="M529.066667 250.88c-42.666667 0-76.8-32.426667-76.8-71.68 0-39.253333 34.133333-71.68 76.8-71.68s76.8 32.426667 76.8 71.68c0 39.253333-34.133333 71.68-76.8 71.68z m0-117.76c-27.306667 0-49.493333 20.48-49.493334 46.08 0 25.6 22.186667 44.373333 49.493334 44.373333s49.493333-20.48 49.493333-44.373333C578.56 153.6 556.373333 133.12 529.066667 133.12z" fill="#707070" p-id="3710"></path></svg>