<?xml version="1.0" standalone="no"?><!DOCTYPE svg PUBLIC "-//W3C//DTD SVG 1.1//EN" "http://www.w3.org/Graphics/SVG/1.1/DTD/svg11.dtd"><svg t="1773064994693" class="icon" viewBox="0 0 1024 1024" version="1.1" xmlns="http://www.w3.org/2000/svg" p-id="2162" xmlns:xlink="http://www.w3.org/1999/xlink" width="200" height="200"><path d="M607.744 166.80561l38.745766 9.495273C624.108052 267.616416 578.573299 316.475844 510.67013 316.475844c-68.135896 0-108.84987-49.065558-121.117922-139.303896l-0.405611-3.098597 39.570286-5.040208c9.488623 74.419532 36.45839 107.546597 81.953247 107.546597 45.833974 0 77.684364-33.479481 96.275948-106.575792l0.797922-3.198338z" fill="#d4237a" p-id="2163"></path><path d="M646.729143 151.605195H374.611117a19.948052 19.948052 0 0 0-12.640416 4.521558L133.977766 342.873766a19.948052 19.948052 0 0 0-4.288831 25.985663L215.492156 506.481039l0.698182 1.037299a19.948052 19.948052 0 0 0 28.339532 4.255584l52.516572-40.108883V849.787013a19.948052 19.948052 0 0 0 19.948052 19.948052h387.344623l1.176935-0.033247a19.948052 19.948052 0 0 0 18.771117-19.914805V471.665039l52.52987 40.115532a19.948052 19.948052 0 0 0 29.031065-5.299532l85.803221-137.614961a19.948052 19.948052 0 0 0-4.288831-25.985662L659.369558 156.126753a19.948052 19.948052 0 0 0-12.633766-4.514909z m-7.121455 39.896104l208.909299 171.134337-64.92426 104.122182-67.145143-51.279792-0.904311-0.651636c-13.072623-8.943377-31.152208 0.365714-31.152208 16.503688V829.838961H336.942545V431.330078l-0.026597-1.110442c-0.824519-15.825455-19.196675-24.536104-32.023273-14.74161l-67.151792 51.279792-64.92426-104.122182L381.725922 191.501299h257.881766z" fill="#d4237a" p-id="2164"></path></svg>